<?xml version="1.0" encoding="UTF-8" standalone="no"?>
<!DOCTYPE svg PUBLIC "-//W3C//DTD SVG 1.1//EN" "http://www.w3.org/Graphics/SVG/1.1/DTD/svg11.dtd">
<svg version="1.1" xmlns="http://www.w3.org/2000/svg" xmlns:xlink="http://www.w3.org/1999/xlink" preserveAspectRatio="xMidYMid meet" viewBox="0 0 640 640" width="640" height="640"><defs><path d="M389.15 352.7C392.76 349.1 398.6 349.1 402.2 352.7C450.39 400.89 588.45 538.95 636.64 587.14C640.24 590.75 640.24 596.59 636.64 600.19C628.05 608.78 608.78 628.05 600.19 636.64C596.59 640.24 590.75 640.24 587.14 636.64C538.95 588.45 400.89 450.39 352.7 402.2C349.1 398.6 349.1 392.76 352.7 389.15C361.3 380.56 380.56 361.3 389.15 352.7Z" id="cMxJOPMvQ"></path><path d="M35 235C35 124.61 124.62 35 235 35C345.38 35 435 124.61 435 235C435 345.38 345.38 435 235 435C124.62 435 35 345.38 35 235Z" id="b2dZ46D0oU"></path></defs><g><g><g><use xlink:href="#cMxJOPMvQ" opacity="1" fill="#757575" fill-opacity="0.98"></use></g><g><use xlink:href="#b2dZ46D0oU" opacity="1" fill="#000000" fill-opacity="0"></use><g><use xlink:href="#b2dZ46D0oU" opacity="1" fill-opacity="0" stroke="#757575" stroke-width="70" stroke-opacity="1"></use></g></g></g></g></svg>